<svg width="238" height="27" viewBox="0 0 238 27" fill="none" xmlns="http://www.w3.org/2000/svg">
<path d="M0 13.2573C0 10.7178 0.567023 8.43984 1.70107 6.42324C2.85924 4.40664 4.41554 2.83817 6.36996 1.71784C8.34851 0.572614 10.508 0 12.8485 0C15.5268 0 17.9034 0.684647 19.9785 2.05394C22.0777 3.39834 23.5978 5.31535 24.5388 7.80498H19.5804C18.9289 6.43569 18.0241 5.41494 16.8659 4.74274C15.7077 4.07054 14.3686 3.73444 12.8485 3.73444C11.1836 3.73444 9.69971 4.12033 8.39676 4.89212C7.09382 5.6639 6.06835 6.77178 5.32036 8.21577C4.59651 9.65975 4.23458 11.3402 4.23458 13.2573C4.23458 15.1743 4.59651 16.8548 5.32036 18.2988C6.06835 19.7427 7.09382 20.8631 8.39676 21.6598C9.69971 22.4315 11.1836 22.8174 12.8485 22.8174C14.3686 22.8174 15.7077 22.4813 16.8659 21.8091C18.0241 21.1369 18.9289 20.1162 19.5804 18.7469H24.5388C23.5978 21.2365 22.0777 23.1535 19.9785 24.4979C17.9034 25.8423 15.5268 26.5145 12.8485 26.5145C10.4839 26.5145 8.32438 25.9544 6.36996 24.834C4.41554 23.6888 2.85924 22.1079 1.70107 20.0913C0.567023 18.0747 0 15.7967 0 13.2573Z" fill="white"/>
<path d="M44.5332 20.9876H34.001L32.1914 26.2905H27.8844L36.8965 0.298756H41.6739L50.686 26.2905H46.3428L44.5332 20.9876ZM43.375 17.5145L39.2852 5.45228L35.1592 17.5145H43.375Z" fill="white"/>
<path d="M62.8926 26.5519C61.2036 26.5519 59.6835 26.2531 58.3323 25.6556C56.9811 25.0332 55.9194 24.1618 55.1473 23.0415C54.3752 21.9212 53.9891 20.6141 53.9891 19.1203H58.4047C58.5012 20.2407 58.9234 21.1618 59.6714 21.8838C60.4435 22.6058 61.5173 22.9668 62.8926 22.9668C64.3162 22.9668 65.4261 22.6183 66.2224 21.9212C67.0186 21.1992 67.4167 20.278 67.4167 19.1577C67.4167 18.2863 67.1634 17.5768 66.6567 17.029C66.1741 16.4813 65.5588 16.0581 64.8108 15.7593C64.087 15.4606 63.0736 15.1369 61.7706 14.7884C60.1299 14.3403 58.7907 13.8921 57.7532 13.444C56.7398 12.971 55.8712 12.249 55.1473 11.278C54.4235 10.3071 54.0615 9.01245 54.0615 7.39419C54.0615 5.90042 54.4235 4.59336 55.1473 3.47303C55.8712 2.3527 56.8846 1.49378 58.1875 0.896268C59.4905 0.298756 60.9985 0 62.7116 0C65.1486 0 67.1392 0.634855 68.6835 1.90456C70.2518 3.14938 71.1205 4.86722 71.2894 7.05809H66.7291C66.6567 6.11203 66.2224 5.30291 65.4261 4.63071C64.6299 3.95851 63.5803 3.62241 62.2773 3.62241C61.095 3.62241 60.1299 3.93361 59.3819 4.55602C58.6339 5.17842 58.2599 6.07469 58.2599 7.24481C58.2599 8.04149 58.4891 8.70125 58.9476 9.22407C59.4301 9.72199 60.0334 10.1203 60.7572 10.4191C61.4811 10.7178 62.4704 11.0415 63.725 11.39C65.3899 11.8631 66.7411 12.3361 67.7786 12.8091C68.8403 13.2822 69.7331 14.0166 70.4569 15.0124C71.2049 15.9834 71.5789 17.2905 71.5789 18.9336C71.5789 20.2531 71.229 21.4979 70.5293 22.668C69.8537 23.8382 68.8524 24.7842 67.5253 25.5062C66.2224 26.2033 64.6781 26.5519 62.8926 26.5519Z" fill="white"/>
<path d="M96.5345 0.3361V26.2905H92.4085V14.9378H80.5734V26.2905H76.4474V0.3361H80.5734V11.4647H92.4085V0.3361H96.5345Z" fill="white"/>
<path d="M96.5345 22.4066V16.3568L107.646 0H115.427V16.0581H118.214V22.4066H115.427V26.888H108.261V22.4066H96.5345ZM108.804 8.25311L103.809 16.0581H108.804V8.25311Z" fill="white"/>
<path d="M138.844 0.410788V6.23651H132.04V26.7386H124.946V6.23651H118.214V0.410788H138.844Z" fill="white"/>
<path d="M154.39 26.7386L149.323 17.029H148.562V26.7386H141.469V0.410788H152.652C154.703 0.410788 156.44 0.784232 157.864 1.53112C159.288 2.25311 160.361 3.26141 161.085 4.55602C161.809 5.82573 162.171 7.25726 162.171 8.85062C162.171 10.6432 161.688 12.2241 160.723 13.5934C159.782 14.9378 158.395 15.8963 156.561 16.4689L162.316 26.7386H154.39ZM148.562 12.0249H152.073C153.038 12.0249 153.762 11.7884 154.245 11.3154C154.727 10.8423 154.969 10.1577 154.969 9.26141C154.969 8.41494 154.715 7.75519 154.209 7.28216C153.726 6.78423 153.014 6.53527 152.073 6.53527H148.562V12.0249Z" fill="white"/>
<path d="M181.539 22.444H172.491L171.115 26.7386H163.66L172.961 0.410788H181.141L190.406 26.7386H182.914L181.539 22.444ZM179.766 16.8423L177.015 8.3278L174.3 16.8423H179.766Z" fill="white"/>
<path d="M202.346 27C199.378 27 196.941 26.278 195.035 24.834C193.129 23.3651 192.103 21.2739 191.958 18.5602H199.523C199.595 19.4813 199.86 20.1535 200.319 20.5768C200.777 21 201.368 21.2116 202.092 21.2116C202.744 21.2116 203.275 21.0498 203.685 20.7261C204.119 20.3776 204.336 19.9046 204.336 19.3071C204.336 18.5353 203.986 17.9378 203.287 17.5145C202.587 17.0913 201.453 16.6183 199.885 16.0954C198.22 15.5228 196.869 14.9751 195.831 14.4523C194.818 13.9046 193.925 13.1203 193.153 12.0996C192.405 11.0539 192.031 9.69709 192.031 8.02904C192.031 6.3361 192.441 4.89212 193.261 3.69709C194.082 2.47718 195.216 1.55602 196.663 0.933609C198.111 0.311203 199.752 0 201.586 0C204.553 0 206.918 0.721991 208.68 2.16597C210.465 3.58506 211.418 5.58921 211.539 8.17842H203.83C203.806 7.38174 203.564 6.78423 203.106 6.38589C202.671 5.98755 202.104 5.78838 201.405 5.78838C200.874 5.78838 200.44 5.95021 200.102 6.27386C199.764 6.59751 199.595 7.05809 199.595 7.6556C199.595 8.15353 199.776 8.58921 200.138 8.96266C200.524 9.3112 200.995 9.62241 201.549 9.89626C202.104 10.1452 202.925 10.4689 204.011 10.8672C205.627 11.4398 206.954 12.0124 207.992 12.5851C209.053 13.1328 209.958 13.917 210.706 14.9378C211.478 15.9336 211.864 17.2033 211.864 18.7469C211.864 20.3153 211.478 21.722 210.706 22.9668C209.958 24.2116 208.86 25.195 207.413 25.917C205.989 26.639 204.3 27 202.346 27Z" fill="white"/>
<path d="M238 0.410788V26.7386H230.906V16.1701H222.256V26.7386H215.162V0.410788H222.256V10.3071H230.906V0.410788H238Z" fill="white"/>
</svg>
