<svg width="36" height="32" viewBox="0 0 36 32" fill="none" xmlns="http://www.w3.org/2000/svg">
<path d="M34.4785 26.1146C33.6005 24.3183 32.3264 22.6866 30.7271 21.3106C29.1328 19.9305 27.2441 18.8302 25.1653 18.0704C25.1467 18.0623 25.1281 18.0583 25.1095 18.0503C28.0091 16.2412 29.894 13.2945 29.894 9.96985C29.894 4.46231 24.7278 0 18.3516 0C11.9753 0 6.80909 4.46231 6.80909 9.96985C6.80909 13.2945 8.69405 16.2412 11.5936 18.0543C11.575 18.0623 11.5564 18.0663 11.5378 18.0744C9.45269 18.8342 7.58169 19.9236 5.97598 21.3146C4.37823 22.6917 3.10434 24.3231 2.22468 26.1186C1.36049 27.8764 0.894414 29.761 0.851679 31.6704C0.850437 31.7133 0.859149 31.7559 0.877304 31.7959C0.895459 31.8358 0.922688 31.8723 0.957387 31.903C0.992087 31.9337 1.03355 31.9581 1.07935 31.9748C1.12514 31.9914 1.17433 32 1.22402 32H4.01655C4.22134 32 4.38424 31.8593 4.38889 31.6864C4.48197 28.5829 5.92478 25.6764 8.4753 23.4734C11.1142 21.194 14.6189 19.9397 18.3516 19.9397C22.0842 19.9397 25.5889 21.194 28.2278 23.4734C30.7783 25.6764 32.2212 28.5829 32.3142 31.6864C32.3189 31.8633 32.4818 32 32.6866 32H35.4791C35.5288 32 35.578 31.9914 35.6238 31.9748C35.6696 31.9581 35.711 31.9337 35.7457 31.903C35.7804 31.8723 35.8077 31.8358 35.8258 31.7959C35.844 31.7559 35.8527 31.7133 35.8514 31.6704C35.8049 29.7487 35.3441 27.8794 34.4785 26.1146ZM18.3516 16.8844C16.2153 16.8844 14.2046 16.1648 12.692 14.8583C11.1794 13.5518 10.3463 11.8151 10.3463 9.96985C10.3463 8.12462 11.1794 6.38794 12.692 5.08141C14.2046 3.77487 16.2153 3.05528 18.3516 3.05528C20.4879 3.05528 22.4985 3.77487 24.0111 5.08141C25.5237 6.38794 26.3568 8.12462 26.3568 9.96985C26.3568 11.8151 25.5237 13.5518 24.0111 14.8583C22.4985 16.1648 20.4879 16.8844 18.3516 16.8844Z" fill="#FBFBFB"/>
</svg>
