<svg width="84" height="74" viewBox="0 0 84 74" fill="none" xmlns="http://www.w3.org/2000/svg">
<ellipse cx="41.7532" cy="36.9614" rx="41.3872" ry="36.1001" fill="#363435"/>
<g clip-path="url(#clip0_440_239)">
<path d="M19.3351 25.4125C13.9381 25.4125 9.56335 29.2284 9.56335 33.9359C9.56335 38.6434 13.9381 42.4593 19.3351 42.4593C19.7579 42.4588 20.1666 42.3265 20.4875 42.0863C20.8084 41.8462 21.0204 41.5139 21.0852 41.1495H21.1134V26.9642C21.1134 26.5527 20.926 26.1582 20.5926 25.8672C20.2591 25.5762 19.8068 25.4126 19.3351 25.4125ZM58.7634 18.4567C58.7632 18.0454 58.5758 17.651 58.2423 17.3601C57.9089 17.0693 57.4567 16.9058 56.9851 16.9056C56.5776 16.9056 56.2068 17.03 55.9073 17.2308L40.2592 25.1113H26.1532C25.6816 25.1113 25.2293 25.2747 24.8958 25.5656C24.5623 25.8565 24.375 26.251 24.375 26.6624V41.3857H24.3972C24.4494 41.7601 24.6567 42.105 24.9801 42.3554C25.3036 42.6058 25.7208 42.7444 26.1532 42.7451H38.6699L55.7791 51.3609C56.0963 51.6176 56.5181 51.7779 56.9851 51.7779C57.4567 51.7778 57.9089 51.6143 58.2423 51.3234C58.5758 51.0326 58.7632 50.6381 58.7634 50.2268C58.7634 50.1681 58.751 50.1121 58.7438 50.0551H58.7634V18.5469H58.7529C58.7549 18.5166 58.7634 18.4881 58.7634 18.4567ZM38.2258 54.5436L38.201 54.5059C38.1925 54.4922 38.1885 54.478 38.1794 54.4643C38.1702 54.4506 38.1585 54.4403 38.1493 54.4278L32.7177 46.2227L32.6974 46.2329C32.555 46.0615 32.3737 45.9176 32.1648 45.81C31.9558 45.7024 31.7237 45.6336 31.4829 45.6077V45.5906H26.7595V45.6009C26.4983 45.6179 26.2447 45.6855 26.0172 45.7988C25.8149 45.9006 25.6376 46.0362 25.4955 46.1978C25.3533 46.3594 25.249 46.5438 25.1886 46.7406C25.1281 46.9373 25.1127 47.1426 25.1433 47.3445C25.1738 47.5465 25.2496 47.7412 25.3665 47.9175C25.4083 47.9803 25.4593 48.0351 25.5097 48.0904L25.4888 48.1012L31.8184 57.6646L31.8197 57.6675C31.8202 57.6683 31.8208 57.6691 31.8216 57.6697L31.8851 57.7656L31.8962 57.7599C32.147 58.0835 32.5289 58.3124 32.9652 58.4004C33.4015 58.4885 33.8598 58.4292 34.2481 58.2345C34.3429 58.1866 34.4286 58.1301 34.509 58.0708L34.5254 58.0953L37.7844 56.4546L37.7693 56.4318C38.0785 56.2086 38.2915 55.9005 38.3737 55.5578C38.4558 55.2152 38.402 54.8584 38.2212 54.5458L38.2258 54.5436Z" fill="#EBEEEE"/>
</g>
<defs>
<clipPath id="clip0_440_239">
<rect width="65.4021" height="57.047" fill="white" transform="translate(9.56335 8.88342)"/>
</clipPath>
</defs>
</svg>
