<svg width="83" height="74" viewBox="0 0 83 74" fill="none" xmlns="http://www.w3.org/2000/svg">
<path d="M80.8302 36.9615C80.8302 55.5465 63.4614 71.0616 41.4429 71.0616C19.4245 71.0616 2.05566 55.5465 2.05566 36.9615C2.05566 18.3766 19.4245 2.86145 41.4429 2.86145C63.4614 2.86145 80.8302 18.3766 80.8302 36.9615Z" fill="white" stroke="#363435" stroke-width="4"/>
<path d="M44.6395 51.4707V55.2345H18.4492V51.4707H44.6395ZM45.9185 15.1233L62.8942 29.7608L59.8081 32.4256L57.4946 31.7594L52.0885 36.4153L64.435 47.0613L61.349 49.7223L49.0046 39.0763L43.7578 43.6005L44.3754 45.7308L41.2872 48.3918L24.3115 33.7543L27.3998 31.0932L29.866 31.6239L43.6028 19.781L42.8324 17.7862L45.9185 15.1233Z" fill="#4B7E7D"/>
</svg>
