<svg width="84" height="74" viewBox="0 0 84 74" fill="none" xmlns="http://www.w3.org/2000/svg">
<ellipse cx="42.1543" cy="36.9615" rx="41.3872" ry="36.1001" fill="#4B7E7D"/>
<path d="M33.3403 36.9615C35.9489 36.9615 38.4507 36.0458 40.2953 34.416C42.1399 32.7862 43.1761 30.5756 43.1761 28.2707C43.1761 25.9658 42.1399 23.7553 40.2953 22.1254C38.4507 20.4956 35.9489 19.58 33.3403 19.58C30.7316 19.58 28.2299 20.4956 26.3853 22.1254C24.5407 23.7553 23.5044 25.9658 23.5044 28.2707C23.5044 30.5756 24.5407 32.7862 26.3853 34.416C28.2299 36.0458 30.7316 36.9615 33.3403 36.9615ZM55.6945 36.9615C57.5917 36.9615 59.4112 36.2956 60.7527 35.1102C62.0942 33.9249 62.8478 32.3172 62.8478 30.6409C62.8478 28.9646 62.0942 27.3569 60.7527 26.1716C59.4112 24.9863 57.5917 24.3204 55.6945 24.3204C53.7973 24.3204 51.9778 24.9863 50.6363 26.1716C49.2948 27.3569 48.5411 28.9646 48.5411 30.6409C48.5411 32.3172 49.2948 33.9249 50.6363 35.1102C51.9778 36.2956 53.7973 36.9615 55.6945 36.9615ZM23.5044 40.1217C22.0815 40.1217 20.7169 40.6212 19.7108 41.5102C18.7046 42.3992 18.1394 43.6049 18.1394 44.8622V45.0992C18.1394 45.0992 18.1394 54.343 33.3403 54.343C48.5411 54.343 48.5411 45.0992 48.5411 45.0992V44.8622C48.5411 43.6049 47.9759 42.3992 46.9698 41.5102C45.9636 40.6212 44.599 40.1217 43.1761 40.1217H23.5044ZM55.6945 51.1827C53.0907 51.1827 51.0305 50.8698 49.3978 50.3721C50.1703 49.266 50.6138 48.1994 50.8642 47.3382C51.0467 46.7194 51.1623 46.0866 51.2093 45.4484C51.2129 45.3852 51.2165 45.3283 51.2165 45.2793L51.2183 45.213V44.8622C51.2214 43.1129 50.4921 41.4244 49.1706 40.1217H63.9083C64.4735 40.1215 65.0332 40.2197 65.5555 40.4107C66.0777 40.6017 66.5522 40.8817 66.952 41.2347C67.3517 41.5878 67.6688 42.0069 67.8852 42.4683C68.1015 42.9297 68.2129 43.4242 68.2129 43.9236C68.2129 43.9236 68.2129 51.1827 55.6945 51.1827Z" fill="#EBEEEE"/>
</svg>
